<?xml version="1.0" standalone="no"?>
<!DOCTYPE svg PUBLIC "-//W3C//DTD SVG 20010904//EN"
 "http://www.w3.org/TR/2001/REC-SVG-20010904/DTD/svg10.dtd">
<svg version="1.0" xmlns="http://www.w3.org/2000/svg"
 width="512.000000pt" height="512.000000pt" viewBox="0 0 512.000000 512.000000"
 preserveAspectRatio="xMidYMid meet">
<metadata>
Created by potrace 1.11, written by Peter Selinger 2001-2013
</metadata>
<g transform="translate(0.000000,512.000000) scale(0.100000,-0.100000)"
fill="#000000" stroke="none">
<path d="M1175 3008 c-264 -83 -482 -152 -484 -155 -6 -4 80 -305 90 -316 4
-5 72 12 152 37 79 25 147 46 151 46 3 0 22 -32 42 -72 223 -442 604 -775
1060 -927 221 -74 298 -85 559 -85 201 0 243 3 334 22 409 89 712 264 999 577
128 140 289 402 346 563 l14 40 -171 71 c-95 39 -176 71 -182 71 -5 0 -25 -35
-43 -78 -155 -370 -489 -678 -870 -801 -150 -49 -259 -65 -437 -65 -230 1
-386 36 -592 134 -258 122 -474 324 -626 584 -25 44 -44 82 -42 86 2 3 69 26
149 50 80 25 146 49 146 55 0 5 -19 79 -42 162 -32 112 -47 153 -58 152 -8 0
-231 -68 -495 -151z"/>
</g>
</svg>
